# xmcd
#
# Track frame offsets: 
#        182
#        19637
#        41790
#        63075
#        79810
#        95422
#        116722
#        136810
#        142817
#        151790
#        164945
#        179662
#        191795
#        204572
#        209365
#        243087
#        248475
#
# Disc length: 3404 seconds
#
# Revision: 2
# Processed by: cddbd v1.5.2PL0 Copyright (c) Steve Scherf et al.
# Submitted via: ExactAudioCopy v1.1
#
DISCID=e90d4a11
DTITLE=(VARIOUS ARTISTS) - A Living Past
DYEAR=1995
DGENRE=Blues
TTITLE0=GUITAR GABRIEL - I Came So Far
TTITLE1=GUITAR GABRIEL - Expressing The Blues
TTITLE2=PRESTON FULP - Careless Love
TTITLE3=PRESTON FULP - Farther Along
TTITLE4=CAPTAIN LUKE - Angels Of Mercury
TTITLE5=BIG BOY HENRY - Little Girl Blues
TTITLE6=BIG BOY HENRY - Hot Shot Momma
TTITLE7=WILLA MAE BUCKNER - Peter Rumpkin
TTITLE8=WILLA MAE BUCKNER - Yo-Yo
TTITLE9=MACAVINE HAYES - Let's Talk It Over
TTITLE10=MACAVINE HAYES - I Got A Woman
TTITLE11=SAMUEL TURNER STEVENS - Railroadin' And Gamblin'
TTITLE12=GUITAR GABRIEL and LUCILLE LINDSEY - Do You Know What It Means 
TTITLE12=To Have A Friend?
TTITLE13=CAPTAIN LUKE - Freight Tram Boogie
TTITLE14=CAPTAIN LUKE - Kingfish Story
TTITLE15=CAPTAIN LUKE - Dog And Cat Fight
TTITLE16=GUITAR GABRIEL - A Living Past
EXTD=
EXTT0=
EXTT1=
EXTT2=
EXTT3=
EXTT4=
EXTT5=
EXTT6=
EXTT7=
EXTT8=
EXTT9=
EXTT10=
EXTT11=
EXTT12=
EXTT13=
EXTT14=
EXTT15=
EXTT16=
PLAYORDER=
